<svg width="228" height="132" viewBox="0 0 228 132" fill="none" xmlns="http://www.w3.org/2000/svg">
<g clip-path="url(#clip0_19_2)">
<rect width="228" height="132" fill="#1E3A5F"/>
<path d="M5.09375 93V38H27.0938V48.625H16.2812V59.3438H26.6562V69.6875H16.2812V82.2812H27.8125V93H5.09375ZM37.25 93L29.7188 46.125H40.9375L43.625 77.4375L46.6562 46.125H57.8438L50.1875 93H37.25ZM73.9062 93.5C70.5729 93.5 67.9167 92.875 65.9375 91.625C63.9583 90.375 62.5417 88.5729 61.6875 86.2188C60.8333 83.8646 60.4062 81.0312 60.4062 77.7188V58.875C60.4062 54.5208 61.6562 51.2292 64.1562 49C66.6562 46.75 70.0938 45.625 74.4688 45.625C83.4688 45.625 87.9688 50.0417 87.9688 58.875V62.2812C87.9688 66.4062 87.9271 69.1771 87.8438 70.5938H71.5938V79.6562C71.5938 80.4896 71.6458 81.3125 71.75 82.125C71.8542 82.9167 72.0833 83.5729 72.4375 84.0938C72.8125 84.6146 73.4062 84.875 74.2188 84.875C75.3854 84.875 76.1146 84.375 76.4062 83.375C76.6979 82.3542 76.8438 81.0312 76.8438 79.4062V74.9062H87.9688V77.5625C87.9688 81.0625 87.5312 84 86.6562 86.375C85.8021 88.7292 84.3438 90.5104 82.2812 91.7188C80.2396 92.9062 77.4479 93.5 73.9062 93.5ZM71.5312 65.0312H76.8438V58.7188C76.8438 57.0312 76.6354 55.8229 76.2188 55.0938C75.8021 54.3438 75.1771 53.9688 74.3438 53.9688C73.4479 53.9688 72.75 54.3229 72.25 55.0312C71.7708 55.7396 71.5312 56.9688 71.5312 58.7188V65.0312ZM92.0312 93V46.125H103.219V52.0938C103.635 50.3021 104.406 48.7812 105.531 47.5312C106.677 46.2604 108.26 45.625 110.281 45.625C113.531 45.625 115.885 46.625 117.344 48.625C118.823 50.625 119.562 53.3646 119.562 56.8438V93H108.531V58C108.531 57.0833 108.344 56.2396 107.969 55.4688C107.594 54.6771 106.948 54.2812 106.031 54.2812C105.177 54.2812 104.542 54.5833 104.125 55.1875C103.729 55.7708 103.479 56.5104 103.375 57.4062C103.271 58.2812 103.219 59.1562 103.219 60.0312V93H92.0312ZM133.594 93.5C130.573 93.5 128.531 92.8646 127.469 91.5938C126.427 90.3021 125.906 88.3333 125.906 85.6875V56.4688H122.75V47.9375H125.906V38H136.781V47.9375H139.938V56.4688H136.781V83.0625C136.781 83.8333 136.906 84.375 137.156 84.6875C137.406 85 137.885 85.1562 138.594 85.1562C139.094 85.1562 139.542 85.1146 139.938 85.0312V92.6562C139.688 92.7396 138.906 92.8958 137.594 93.125C136.281 93.375 134.948 93.5 133.594 93.5ZM152.062 93.5C149.458 93.5 147.469 92.8958 146.094 91.6875C144.74 90.4792 143.812 88.8229 143.312 86.7188C142.812 84.6146 142.562 82.2292 142.562 79.5625C142.562 76.7083 142.844 74.375 143.406 72.5625C143.969 70.7292 144.927 69.2292 146.281 68.0625C147.656 66.8958 149.542 65.9062 151.938 65.0938L158.875 62.7188V57.9062C158.875 55.3854 158.052 54.125 156.406 54.125C154.906 54.125 154.156 55.1458 154.156 57.1875V60H143.281C143.26 59.8333 143.25 59.625 143.25 59.375C143.25 59.1042 143.25 58.8021 143.25 58.4688C143.25 53.8021 144.344 50.5 146.531 48.5625C148.74 46.6042 152.229 45.625 157 45.625C159.5 45.625 161.74 46.0729 163.719 46.9688C165.698 47.8438 167.26 49.1458 168.406 50.875C169.573 52.6042 170.156 54.7396 170.156 57.2812V93H159.031V87.4375C158.49 89.3958 157.594 90.8958 156.344 91.9375C155.094 92.9792 153.667 93.5 152.062 93.5ZM156.469 84.8125C157.385 84.8125 158.01 84.4271 158.344 83.6562C158.677 82.8854 158.844 82.0521 158.844 81.1562V68.0938C157.302 68.7188 156.104 69.5104 155.25 70.4688C154.396 71.4062 153.969 72.7917 153.969 74.625V80.6562C153.969 83.4271 154.802 84.8125 156.469 84.8125ZM174.469 93V46.125H185.844V51.3438C186.385 49.5312 187.344 48.1146 188.719 47.0938C190.094 46.0729 191.823 45.5625 193.906 45.5625V54.9062C192.99 54.9062 191.896 55.0104 190.625 55.2188C189.354 55.4062 188.24 55.6771 187.281 56.0312C186.323 56.3646 185.844 56.7396 185.844 57.1562V93H174.469ZM205.188 93.5C202.583 93.5 200.594 92.8958 199.219 91.6875C197.865 90.4792 196.938 88.8229 196.438 86.7188C195.938 84.6146 195.688 82.2292 195.688 79.5625C195.688 76.7083 195.969 74.375 196.531 72.5625C197.094 70.7292 198.052 69.2292 199.406 68.0625C200.781 66.8958 202.667 65.9062 205.062 65.0938L212 62.7188V57.9062C212 55.3854 211.177 54.125 209.531 54.125C208.031 54.125 207.281 55.1458 207.281 57.1875V60H196.406C196.385 59.8333 196.375 59.625 196.375 59.375C196.375 59.1042 196.375 58.8021 196.375 58.4688C196.375 53.8021 197.469 50.5 199.656 48.5625C201.865 46.6042 205.354 45.625 210.125 45.625C212.625 45.625 214.865 46.0729 216.844 46.9688C218.823 47.8438 220.385 49.1458 221.531 50.875C222.698 52.6042 223.281 54.7396 223.281 57.2812V93H212.156V87.4375C211.615 89.3958 210.719 90.8958 209.469 91.9375C208.219 92.9792 206.792 93.5 205.188 93.5ZM209.594 84.8125C210.51 84.8125 211.135 84.4271 211.469 83.6562C211.802 82.8854 211.969 82.0521 211.969 81.1562V68.0938C210.427 68.7188 209.229 69.5104 208.375 70.4688C207.521 71.4062 207.094 72.7917 207.094 74.625V80.6562C207.094 83.4271 207.927 84.8125 209.594 84.8125Z" fill="#F5F5F5"/>
</g>
<defs>
<clipPath id="clip0_19_2">
<rect width="228" height="132" fill="white"/>
</clipPath>
</defs>
</svg>

